<?xml version="1.0" standalone="no"?>
<!DOCTYPE svg PUBLIC "-//W3C//DTD SVG 20010904//EN"
 "http://www.w3.org/TR/2001/REC-SVG-20010904/DTD/svg10.dtd">
<svg version="1.0" xmlns="http://www.w3.org/2000/svg"
 width="527.000000pt" height="861.000000pt" viewBox="0 0 527.000000 861.000000"
 preserveAspectRatio="xMidYMid meet">

<g transform="translate(0.000000,861.000000) scale(0.100000,-0.100000)"
fill="#000000" stroke="none">
<path d="M2970 8411 c-30 -10 -70 -25 -87 -35 -30 -15 -36 -15 -62 -2 -117 61
-253 61 -372 1 -19 -10 -42 -24 -52 -33 -16 -14 -23 -14 -80 6 -123 43 -251
24 -363 -54 l-64 -45 -59 12 c-49 9 -73 8 -139 -5 -123 -25 -178 -54 -265
-140 -68 -68 -84 -78 -134 -90 -166 -38 -318 -184 -366 -351 -8 -27 -12 -55
-10 -60 2 -6 -19 -28 -47 -49 -59 -45 -132 -151 -161 -233 -25 -69 -30 -205
-10 -241 11 -21 10 -27 -9 -47 -39 -41 -71 -158 -77 -276 -6 -116 3 -161 42
-207 l23 -28 -35 -55 c-24 -40 -37 -76 -44 -125 -19 -129 8 -222 84 -290 39
-36 42 -41 48 -112 5 -48 17 -93 35 -130 38 -79 141 -179 227 -219 37 -18 70
-41 73 -50 18 -57 52 -118 81 -143 38 -34 109 -67 161 -75 93 -15 91 -14 113
-65 26 -62 67 -90 186 -129 109 -36 180 -46 244 -33 33 6 56 5 76 -3 87 -37
262 -20 322 31 28 23 29 23 46 4 9 -10 14 -23 11 -28 -3 -6 0 -23 8 -39 25
-49 44 -95 71 -178 14 -44 32 -91 39 -105 28 -52 52 -379 36 -490 -6 -41 -13
-97 -16 -125 -8 -89 -99 -472 -132 -557 l-14 -37 -50 25 c-94 48 -201 39 -328
-26 -37 -19 -48 -20 -91 -11 -125 27 -264 -6 -363 -86 -71 -58 -68 -56 -136
-78 -78 -25 -153 -60 -201 -94 -49 -36 -136 -146 -173 -218 -15 -31 -33 -53
-42 -53 -33 0 -90 -36 -155 -97 -83 -78 -118 -151 -128 -262 -6 -70 -10 -82
-42 -119 -43 -50 -94 -149 -111 -214 -9 -37 -9 -68 0 -140 l11 -92 -30 -62
c-44 -93 -51 -146 -33 -250 8 -48 22 -101 31 -118 12 -23 17 -62 17 -146 2
-103 4 -121 29 -175 16 -33 40 -73 56 -90 56 -61 80 -103 90 -158 13 -71 38
-121 99 -194 75 -89 119 -116 211 -124 72 -7 78 -10 111 -47 39 -44 181 -153
253 -195 26 -16 69 -34 95 -41 52 -13 167 -7 167 9 0 6 -39 13 -88 16 -72 5
-98 12 -149 38 -64 34 -184 123 -255 189 -44 41 -101 62 -167 62 -29 0 -46 10
-100 60 -35 34 -79 84 -97 111 -38 59 -71 171 -62 207 5 20 3 24 -9 20 -22 -9
-92 78 -123 152 -30 72 -45 194 -26 227 9 17 6 29 -13 65 -28 51 -51 190 -42
254 6 50 41 139 64 167 13 14 13 24 4 56 -19 62 -15 183 8 241 19 48 74 130
117 176 17 16 20 34 20 95 -1 106 27 173 106 250 63 60 126 99 164 99 17 0 25
11 38 49 27 82 145 218 225 260 71 38 170 72 189 66 14 -4 26 3 46 29 79 103
291 166 405 120 40 -16 42 -16 94 10 64 32 147 56 198 56 44 0 148 -37 148
-52 0 -21 -164 -329 -263 -493 -138 -229 -274 -376 -412 -445 -39 -18 -81 -42
-95 -51 -71 -47 -303 -133 -390 -145 -73 -10 -110 -36 -110 -79 0 -24 6 -37
19 -45 28 -15 112 -12 160 4 22 8 71 22 108 32 38 9 73 20 78 24 6 4 37 15 70
23 33 9 85 25 116 36 32 12 72 23 90 26 36 5 60 10 209 44 52 12 131 24 176
26 77 4 82 3 111 -24 42 -38 58 -86 49 -147 -7 -41 -16 -56 -55 -94 -43 -41
-151 -102 -226 -128 -16 -5 -55 -20 -85 -32 -30 -13 -84 -34 -120 -47 -36 -14
-101 -40 -145 -58 -44 -18 -107 -41 -140 -50 -33 -10 -82 -28 -110 -40 -27
-12 -62 -27 -77 -33 -32 -13 -63 -56 -55 -77 23 -59 215 -55 348 7 42 20 102
43 135 53 32 9 64 20 69 25 14 11 274 89 333 100 26 5 68 13 93 19 82 18 393
39 504 34 33 -1 84 -2 113 -2 30 0 59 -4 65 -9 7 -5 49 -12 95 -15 55 -4 103
-15 145 -33 34 -14 78 -30 97 -34 46 -11 154 -47 177 -58 10 -6 50 -20 88 -32
39 -13 90 -33 115 -45 137 -69 373 -144 451 -145 72 0 57 58 -28 111 -30 19
-67 42 -82 51 -14 10 -53 31 -86 47 -33 17 -83 43 -110 58 -59 33 -309 153
-318 153 -8 0 -164 91 -218 127 -93 61 -117 121 -79 195 45 89 88 112 200 111
69 -1 101 -7 167 -32 45 -16 90 -34 100 -40 41 -22 263 -114 328 -136 39 -13
103 -37 142 -54 124 -51 198 -53 229 -6 15 23 15 27 1 49 -10 14 -29 25 -51
29 -20 3 -55 19 -78 35 -24 16 -74 50 -113 76 -208 136 -387 282 -465 377 -24
30 -89 101 -145 159 -56 58 -123 136 -149 174 -44 63 -126 230 -126 254 0 6
-4 12 -8 14 -17 7 -90 173 -98 223 -4 20 -9 46 -66 290 -77 332 -75 517 6 752
43 122 105 273 144 350 16 32 33 66 36 77 7 20 22 19 96 -10 31 -12 73 -17
135 -17 77 0 97 3 141 26 29 14 66 44 83 65 l30 39 53 -13 c67 -18 67 -18 132
6 69 26 132 82 185 163 40 62 43 64 91 70 90 11 209 111 269 226 36 69 42 76
82 88 58 16 140 89 181 161 30 53 33 64 33 145 0 82 -2 90 -24 108 -32 26 -38
17 -16 -31 40 -89 -1 -214 -100 -302 -58 -52 -85 -68 -117 -69 -18 0 -30 -14
-58 -72 -44 -90 -66 -116 -148 -175 -57 -40 -74 -47 -116 -48 -37 -1 -53 -6
-60 -19 -38 -65 -132 -174 -168 -197 -62 -38 -104 -43 -170 -21 l-56 19 -43
-49 c-24 -28 -62 -58 -87 -69 -95 -43 -324 -3 -309 53 10 38 208 358 237 383
17 13 30 29 30 34 0 17 110 145 230 267 122 124 128 130 195 180 22 17 45 35
50 41 10 11 80 57 160 105 22 13 94 42 160 64 101 34 121 44 123 62 7 50 -82
73 -189 49 -78 -18 -258 -101 -354 -163 -33 -21 -89 -51 -125 -67 -36 -16 -69
-32 -75 -37 -5 -5 -19 -9 -31 -9 -12 0 -38 -7 -57 -15 -20 -8 -57 -15 -83 -15
-39 0 -51 5 -80 34 -27 27 -34 42 -34 72 0 125 32 164 201 247 139 67 415 192
449 202 48 15 155 73 173 95 24 29 18 62 -15 78 -25 12 -44 8 -185 -34 -87
-25 -176 -51 -198 -56 -21 -5 -44 -13 -50 -18 -5 -5 -60 -16 -120 -25 -60 -9
-128 -24 -152 -35 -91 -40 -357 -65 -683 -65 -98 1 -206 6 -245 13 -176 33
-463 116 -552 161 -32 16 -85 37 -117 46 -33 10 -73 26 -90 36 -17 10 -38 19
-47 19 -9 0 -51 16 -93 35 -84 38 -104 41 -171 23 -37 -10 -45 -16 -43 -32 3
-20 87 -87 100 -79 13 7 447 -279 457 -300 2 -5 22 -17 45 -27 22 -11 63 -40
90 -64 47 -43 50 -48 47 -91 -3 -62 -14 -88 -57 -134 -57 -63 -79 -67 -155
-33 -36 17 -81 33 -100 36 -58 12 -218 81 -289 126 -90 57 -234 130 -254 130
-12 0 -32 7 -44 16 -12 8 -42 17 -67 20 -52 4 -85 -19 -85 -60 0 -27 21 -43
103 -75 31 -13 61 -29 65 -35 9 -15 86 -51 140 -65 23 -7 42 -16 42 -20 0 -5
23 -18 50 -30 27 -12 50 -28 50 -36 0 -15 38 -40 47 -31 3 3 37 -24 76 -59 38
-36 73 -65 77 -65 21 0 311 -353 345 -420 10 -19 24 -39 31 -43 8 -4 24 -27
36 -50 16 -32 17 -39 4 -28 -27 22 -19 -5 15 -55 16 -24 44 -74 61 -110 30
-65 31 -66 11 -85 -45 -45 -211 -64 -297 -35 -32 11 -67 14 -128 9 -75 -5 -93
-2 -188 27 -115 36 -172 78 -186 136 -10 43 -19 51 -66 52 -64 3 -139 28 -187
62 -39 28 -69 77 -94 152 -3 9 -38 33 -78 54 -144 76 -244 215 -252 352 -4 59
-7 64 -49 102 -66 58 -81 97 -80 205 1 99 18 159 59 208 13 16 23 33 23 37 0
5 -14 26 -32 46 -30 34 -32 42 -36 125 -6 113 25 254 69 324 27 43 29 51 18
73 -19 35 -16 157 5 222 25 75 79 154 148 219 32 29 58 59 58 67 0 28 33 111
66 165 75 124 178 205 287 223 29 6 37 4 37 -9 0 -34 31 -7 83 71 53 79 147
137 257 160 87 19 154 18 170 -1 19 -22 38 -18 77 15 65 58 199 110 281 110
18 0 56 -10 83 -21 40 -17 48 -25 44 -40 -11 -33 27 -22 80 22 100 83 219 108
330 70 32 -12 69 -31 82 -43 l23 -21 23 21 c32 30 80 48 168 63 72 12 80 11
139 -11 71 -26 185 -120 185 -151 0 -25 7 -25 63 3 40 20 62 23 152 23 99 0
109 -2 171 -33 64 -32 138 -93 140 -116 1 -6 1 -19 0 -28 -2 -15 5 -16 46 -11
97 11 245 -46 284 -110 23 -38 25 -67 4 -67 -8 0 -15 -6 -15 -14 0 -8 19 -18
48 -25 26 -7 66 -23 88 -36 41 -24 104 -87 104 -105 0 -5 12 -26 26 -47 22
-32 25 -46 21 -84 -5 -41 -3 -48 17 -57 40 -18 95 -72 124 -121 24 -40 27 -56
27 -131 0 -59 -6 -100 -19 -133 -10 -26 -17 -48 -15 -50 2 -1 17 -9 33 -17 49
-25 80 -114 81 -225 0 -82 -3 -94 -30 -140 -46 -76 -46 -76 -6 -130 33 -46 36
-55 36 -120 0 -43 -6 -80 -15 -96 -8 -15 -27 -48 -41 -75 -15 -27 -36 -58 -48
-68 -24 -22 -28 -46 -8 -46 18 0 64 59 107 135 28 51 34 72 37 140 4 78 4 81
-31 133 -20 30 -36 56 -36 59 0 2 14 24 30 48 40 58 53 129 40 212 -13 82 -51
167 -84 188 -28 19 -34 50 -12 58 9 4 17 28 21 62 15 119 -40 254 -126 310
-42 27 -47 34 -47 68 -2 104 -91 232 -190 275 -43 19 -51 27 -67 69 -23 62
-57 98 -120 127 -58 28 -187 58 -208 50 -11 -4 -21 6 -33 31 -23 48 -129 119
-209 140 -84 21 -194 17 -282 -10 -17 -5 -34 5 -83 50 -85 78 -166 115 -250
114 -36 0 -90 -8 -120 -18z m-1419 -1600 c30 -10 83 -33 118 -51 35 -17 77
-33 92 -35 15 -2 50 -15 77 -29 58 -30 183 -75 227 -83 17 -3 37 -12 46 -19
14 -12 79 -29 206 -53 23 -4 48 -13 56 -19 8 -7 61 -16 118 -22 57 -6 115 -13
128 -16 25 -5 330 -5 431 1 125 7 282 30 370 54 41 11 86 21 100 21 14 0 39 9
55 20 17 11 41 20 54 20 30 0 212 49 227 61 6 5 22 9 35 8 13 -1 49 8 79 19
30 11 78 23 105 27 l50 7 -52 -34 c-57 -38 -79 -48 -228 -104 -55 -21 -113
-48 -130 -60 -16 -13 -57 -33 -90 -45 -33 -12 -76 -32 -95 -43 -19 -12 -48
-28 -65 -36 -51 -25 -112 -65 -149 -97 -27 -25 -37 -43 -44 -84 -9 -49 -8 -58
21 -117 39 -80 75 -112 127 -112 22 0 49 4 62 9 13 5 46 14 73 20 41 10 247
104 345 158 46 25 132 63 145 63 7 0 23 9 37 19 59 47 208 81 208 47 0 -14
-46 -34 -141 -61 -76 -21 -301 -156 -334 -199 -28 -37 -70 -63 -45 -29 7 10
-23 -18 -65 -62 -86 -87 -241 -277 -258 -312 -6 -13 -14 -23 -18 -23 -15 0
-200 -257 -238 -330 -10 -19 -42 -80 -72 -135 -31 -55 -61 -116 -69 -135 -12
-32 -73 -174 -106 -247 -8 -17 -14 -35 -14 -39 0 -5 -15 -58 -34 -119 -43
-137 -50 -256 -28 -465 8 -80 16 -179 17 -220 2 -99 22 -191 40 -184 8 3 16
-4 20 -16 8 -26 -3 -40 -15 -20 -8 13 -10 13 -10 -1 0 -9 8 -27 19 -40 10 -13
28 -56 40 -94 20 -63 45 -122 145 -340 31 -67 104 -171 156 -225 14 -14 124
-128 244 -253 120 -125 223 -227 228 -227 9 0 124 -84 168 -123 14 -12 56 -40
94 -62 38 -22 71 -46 74 -54 8 -23 -82 -6 -153 29 -34 17 -66 30 -72 30 -10 0
-86 33 -229 101 -34 16 -106 41 -160 56 -81 23 -117 28 -198 26 -95 -2 -100
-3 -152 -37 -61 -41 -76 -62 -94 -131 -8 -27 -18 -53 -23 -56 -11 -8 72 -139
87 -139 5 0 19 -8 30 -19 12 -10 41 -30 66 -43 25 -14 67 -40 93 -58 27 -18
72 -41 100 -52 29 -11 57 -24 63 -29 6 -5 40 -18 76 -29 36 -11 76 -28 89 -38
13 -9 92 -51 174 -91 140 -69 195 -104 195 -122 0 -10 -47 4 -97 30 -23 11
-47 21 -54 21 -6 0 -25 7 -42 15 -18 8 -67 26 -109 40 -43 14 -99 37 -124 50
-26 14 -53 25 -59 25 -11 0 -89 34 -135 59 -45 24 -91 42 -145 55 -33 8 -78
19 -100 25 -144 36 -238 52 -342 56 -65 3 -152 7 -194 10 -41 4 -115 1 -165
-6 -49 -6 -96 -11 -104 -11 -40 -1 -313 -65 -403 -94 -42 -14 -90 -27 -105
-28 -15 -1 -49 -13 -77 -27 -103 -54 -375 -131 -428 -122 -20 3 -37 9 -37 12
0 8 75 39 170 71 36 12 108 39 160 62 157 66 165 69 191 73 13 2 74 26 136 54
62 28 118 51 126 51 8 0 22 9 32 20 10 11 26 20 35 20 29 0 127 112 140 160
12 46 6 109 -16 152 -16 31 -74 78 -95 78 -8 0 -20 5 -25 10 -15 15 -257 -19
-359 -50 -33 -10 -80 -23 -105 -29 -111 -27 -167 -43 -200 -55 -19 -8 -64 -22
-100 -31 -36 -10 -92 -26 -125 -35 -33 -10 -89 -21 -125 -25 -57 -7 -63 -6
-52 8 15 17 39 27 142 56 148 42 305 96 330 112 45 30 115 64 131 64 9 0 58
41 108 90 109 107 108 105 156 175 21 30 53 69 72 87 18 17 33 36 33 42 0 5
12 24 28 42 15 18 52 82 83 143 31 60 66 120 78 132 11 12 21 27 21 32 0 6 22
53 49 104 67 128 118 271 147 407 13 64 35 168 49 231 38 172 46 245 39 351
-5 67 -3 98 5 103 14 9 15 113 1 121 -7 4 -8 -3 -4 -22 4 -19 3 -25 -4 -18 -5
6 -13 30 -17 55 -4 33 -3 41 4 30 6 -8 11 -10 11 -5 0 21 -30 151 -39 170 -19
37 -81 205 -81 217 -1 20 -34 77 -45 77 -5 0 -11 5 -14 12 -2 7 1 9 8 5 17
-11 13 4 -17 60 -75 142 -102 200 -102 217 0 10 -4 15 -10 12 -5 -3 -10 3 -10
13 0 11 -7 25 -15 32 -8 6 -39 54 -70 106 -31 52 -75 117 -98 145 -23 29 -50
66 -60 82 -10 17 -34 49 -53 71 -19 22 -34 46 -34 53 0 7 -10 17 -22 22 -13 5
-49 32 -81 60 -79 69 -158 122 -237 160 -25 11 -74 39 -109 61 -35 22 -68 37
-72 34 -5 -3 -12 2 -15 10 -3 9 -10 16 -16 16 -5 0 -6 -4 -3 -10 11 -17 -11
-11 -29 9 -9 10 -34 26 -56 36 -43 20 -54 36 -17 28 109 -25 147 -42 337 -147
85 -47 158 -86 163 -86 4 0 45 -18 90 -40 91 -44 174 -65 218 -56 43 8 94 51
127 105 40 66 53 120 46 185 -7 56 -7 56 -68 93 -88 53 -197 122 -226 144 -14
10 -54 35 -90 55 -36 21 -66 41 -68 46 -2 4 -10 8 -17 8 -15 0 -220 134 -230
150 -8 13 -7 13 56 -9z m1799 -521 c-6 -11 -15 -20 -21 -20 -6 0 -6 7 1 20 6
11 15 20 21 20 6 0 6 -7 -1 -20z m-218 -1172 c-7 -7 -12 -8 -12 -2 0 14 12 26
19 19 2 -3 -1 -11 -7 -17z m-235 -630 c-3 -7 -5 -2 -5 12 0 14 2 19 5 13 2 -7
2 -19 0 -25z m117 -954 c3 -8 2 -12 -4 -9 -6 3 -10 10 -10 16 0 14 7 11 14 -7z
m23 -1226 c-3 -8 -6 -5 -6 6 -1 11 2 17 5 13 3 -3 4 -12 1 -19z"/>
<path d="M2719 7046 c-84 -57 -115 -151 -100 -299 5 -53 13 -101 16 -107 16
-27 70 -42 124 -37 140 15 159 92 95 395 -7 33 -48 72 -76 72 -13 0 -39 -11
-59 -24z m86 -40 c23 -35 56 -223 49 -275 -10 -66 -40 -91 -107 -91 -37 0 -59
5 -67 15 -7 9 -17 53 -23 98 -12 105 6 175 62 236 43 47 64 51 86 17z"/>
<path d="M1730 6444 c-32 -14 -32 -16 -27 -62 4 -41 12 -53 54 -92 27 -25 78
-62 114 -83 54 -32 71 -37 114 -35 44 3 52 7 72 37 29 42 29 73 2 121 -21 36
-90 86 -154 110 -45 17 -138 19 -175 4z m197 -65 c72 -35 103 -69 103 -113 0
-59 -34 -70 -110 -35 -98 45 -191 137 -176 176 9 23 108 8 183 -28z"/>
<path d="M3695 6383 c-47 -6 -202 -74 -240 -106 -30 -25 -35 -35 -35 -72 0
-51 26 -78 92 -96 81 -21 202 23 269 100 41 46 48 77 29 125 -8 23 -58 58 -77
55 -4 -1 -21 -4 -38 -6z m69 -49 c24 -23 19 -49 -16 -89 -51 -59 -123 -95
-188 -95 -61 0 -100 19 -100 50 0 23 69 83 112 97 18 6 58 20 88 32 67 25 84
26 104 5z"/>
<path d="M3115 3598 c-52 -11 -67 -22 -58 -44 4 -11 10 -11 32 0 14 8 67 17
118 21 117 9 177 -8 241 -72 42 -42 46 -44 69 -32 15 8 59 14 112 14 81 0 90
-2 144 -35 60 -36 92 -72 90 -102 -2 -16 13 -23 39 -19 15 2 136 -43 174 -64
22 -13 57 -42 77 -64 38 -42 87 -130 87 -156 0 -9 9 -15 25 -15 61 0 239 -115
273 -176 28 -53 33 -150 9 -187 -15 -24 -15 -26 15 -53 99 -93 158 -219 159
-343 1 -75 -11 -115 -41 -133 -25 -16 -25 -23 0 -57 10 -16 23 -46 28 -67 11
-51 -3 -199 -24 -246 -16 -35 -64 -81 -111 -106 -19 -10 -21 -20 -21 -74 0
-83 -30 -160 -95 -245 -50 -65 -56 -69 -132 -95 -78 -26 -80 -28 -80 -60 0
-21 -5 -32 -12 -30 -7 1 -13 -1 -13 -5 -4 -93 -11 -140 -29 -175 -28 -57 -76
-109 -131 -141 -41 -23 -68 -32 -152 -51 -19 -4 -34 -19 -47 -44 -24 -46 -71
-91 -131 -125 -54 -30 -190 -60 -237 -51 -30 6 -33 4 -33 -18 0 -38 -52 -103
-98 -121 -22 -9 -81 -26 -132 -38 -100 -23 -175 -21 -218 7 -29 19 -48 6 -57
-37 -10 -44 -79 -141 -115 -163 -65 -38 -214 -30 -299 15 -31 16 -37 17 -51 4
-21 -19 -111 -20 -172 -1 -44 13 -87 40 -156 98 -36 31 -52 35 -52 15 0 -18
-65 -37 -124 -37 -90 0 -244 83 -311 168 -36 46 -65 65 -65 44 0 -11 53 -85
78 -110 22 -22 146 -97 194 -117 47 -19 153 -19 207 0 l42 15 52 -39 c95 -71
110 -76 237 -77 70 -1 138 -8 175 -18 115 -31 229 -15 294 40 21 18 51 62 71
103 19 39 40 69 45 66 6 -2 33 -11 61 -20 49 -15 56 -15 158 9 58 14 128 37
155 51 51 25 96 74 103 110 3 17 14 21 83 27 123 12 203 47 270 119 30 33 55
69 55 79 0 20 7 23 84 35 89 15 194 92 236 175 17 33 51 152 49 168 -1 4 2 22
6 41 7 28 16 37 62 57 29 13 59 24 66 24 17 0 76 62 116 122 51 77 71 133 71
202 l0 63 52 39 c68 51 93 100 108 220 12 99 7 135 -28 196 -14 25 -14 28 11
58 37 43 40 127 10 254 -15 66 -61 141 -133 218 -18 19 -20 29 -13 63 10 52 7
127 -7 170 -7 20 -33 53 -61 78 -57 50 -195 122 -226 118 -17 -2 -24 4 -29 26
-12 50 -64 131 -114 176 -49 44 -180 107 -223 107 -17 0 -27 10 -40 38 -17 39
-89 91 -164 118 -44 15 -131 18 -185 5 -34 -8 -42 -6 -75 21 -63 51 -115 69
-211 73 -48 2 -109 -1 -137 -7z"/>
<path d="M3258 2438 c-42 -65 -49 -88 -38 -123 15 -45 64 -87 161 -135 129
-66 203 -64 236 5 17 35 17 37 -7 82 -39 74 -140 138 -234 149 -46 6 -56 10
-56 25 0 27 -44 25 -62 -3z m122 -64 c95 -13 210 -101 210 -159 0 -30 -25 -49
-64 -48 -68 2 -246 113 -258 161 -3 10 -1 28 3 41 7 18 14 22 36 17 16 -3 48
-8 73 -12z"/>
<path d="M1999 2436 c-2 -2 -31 -6 -64 -10 -103 -10 -187 -47 -247 -107 -30
-30 -38 -46 -38 -74 0 -54 14 -71 71 -90 55 -19 124 -17 228 6 77 16 146 84
156 152 5 31 3 56 -4 70 -18 33 -85 68 -102 53z m52 -56 c39 -21 15 -99 -45
-145 -84 -64 -316 -69 -316 -7 0 29 27 59 90 97 81 49 226 79 271 55z"/>
<path d="M2590 1933 c-31 -22 -49 -64 -70 -165 -28 -128 -27 -215 3 -259 45
-67 105 -76 187 -26 73 43 100 95 101 194 2 109 -26 175 -96 229 -46 35 -98
46 -125 27z m109 -69 c55 -49 75 -106 69 -193 -6 -84 -33 -133 -89 -161 -54
-28 -95 -26 -115 5 -21 32 -20 154 2 255 20 90 29 108 57 120 33 13 34 13 76
-26z"/>
</g>
</svg>
